<?xml version="1.0" encoding="UTF-8"?>
<svg version="1.1" xmlns="http://www.w3.org/2000/svg" width="149" height="149">
<path d="M0 0 C13.86 0 27.72 0 42 0 C42 49.17 42 98.34 42 149 C28.14 149 14.28 149 0 149 C0 99.83 0 50.66 0 0 Z " fill="#3F3F3F" transform="translate(107,0)"/>
<path d="M0 0 C20.46 0 40.92 0 62 0 C62 23.76 62 47.52 62 72 C57.77893901 68.48244918 54.94156367 65.96127797 51.6875 61.8125 C48.72318298 58.10337971 45.70316027 54.50502877 42.5 51 C39.47717579 47.68010514 36.57487839 44.30235888 33.75 40.8125 C30.1452904 36.36146728 26.44609731 32.00819784 22.6875 27.6875 C22.14005127 27.05763184 21.59260254 26.42776367 21.02856445 25.77880859 C18.79036617 23.20506062 16.55089944 20.63241982 14.31054688 18.06054688 C12.68279969 16.18911357 11.05970698 14.31373597 9.4375 12.4375 C8.94918701 11.87828857 8.46087402 11.31907715 7.95776367 10.74291992 C7.4960376 10.20771729 7.03431152 9.67251465 6.55859375 9.12109375 C6.15954834 8.6614624 5.76050293 8.20183105 5.34936523 7.72827148 C3.42129646 5.25879458 1.73788248 2.60682372 0 0 Z " fill="#444444" transform="translate(0,0)"/>
<path d="M0 0 C6.51937879 6.51937879 12.64150043 13.26687399 18.4375 20.4375 C22.29825137 25.211403 26.37437075 29.73388428 30.53125 34.25 C33.72881296 37.81184229 36.71388343 41.52565833 39.71875 45.25 C42.06718968 48.08099578 44.50909902 50.79383598 47 53.5 C59.60463122 67.20926244 59.60463122 67.20926244 62 72 C41.54 72 21.08 72 0 72 C0 48.24 0 24.48 0 0 Z " fill="#404040" transform="translate(0,77)"/>
</svg>
